<svg id="visual" viewBox="0 0 1366 768" width="1366" height="768" xmlns="http://www.w3.org/2000/svg" xmlns:xlink="http://www.w3.org/1999/xlink" version="1.1"><rect x="0" y="0" width="1366" height="768" fill="#f2edeb"></rect><defs><linearGradient id="grad1_0" x1="43.8%" y1="0%" x2="100%" y2="100%"><stop offset="14.427083333333334%" stop-color="#f2edeb" stop-opacity="1"></stop><stop offset="85.57291666666667%" stop-color="#f2edeb" stop-opacity="1"></stop></linearGradient></defs><defs><linearGradient id="grad2_0" x1="0%" y1="0%" x2="56.2%" y2="100%"><stop offset="14.427083333333334%" stop-color="#f2edeb" stop-opacity="1"></stop><stop offset="85.57291666666667%" stop-color="#f2edeb" stop-opacity="1"></stop></linearGradient></defs><g transform="translate(1366, 0)"><path d="M0 349C-52.2 408.8 -104.5 468.6 -154.3 474.8C-204 480.9 -251.3 433.4 -281 386.7C-310.6 340.1 -322.6 294.3 -351.9 255.7C-381.2 217.1 -427.8 185.7 -444.1 144.3C-460.5 102.9 -446.8 51.4 -433 0L0 0Z" fill="#eec9ce"></path></g><g transform="translate(0, 768)"><path d="M0 -450C35.6 -422.3 71.3 -394.7 129.2 -397.5C187 -400.4 267.1 -433.9 293.4 -403.9C319.7 -373.9 292.2 -280.4 317.9 -231C343.7 -181.6 422.8 -176.1 446 -144.9C469.3 -113.8 436.6 -56.9 404 0L0 0Z" fill="#eec9ce"></path></g></svg>