<svg xmlns="http://www.w3.org/2000/svg" version="1.1" xmlns:xlink="http://www.w3.org/1999/xlink" xmlns:svgjs="http://svgjs.com/svgjs" width="1440" height="560" preserveAspectRatio="none" viewBox="0 0 1440 560"><g mask="url(&quot;#SvgjsMask1012&quot;)" fill="none"><path d="M700 117.01C689.48 117.01 679.19 127.36 679.19 140C679.19 157.19 689.43 176.67 700 176.67C710.68 176.67 721.69 157.13 721.69 140C721.69 127.3 710.73 117.01 700 117.01" stroke="rgba(51, 121, 194, 0.58)" stroke-width="2"></path><path d="M1260 66.32C1247.94 66.32 1232 105.36 1232 140C1232 159.7 1247.47 175 1260 175C1271.19 175 1279.44 158.72 1279.44 140C1279.44 104.38 1271.66 66.32 1260 66.32" stroke="rgba(51, 121, 194, 0.58)" stroke-width="2"></path><path d="M1466.96 0C1505.39 9.92 1523.94 5.36 1540 36.13C1560.46 75.36 1540 88.06 1540 140C1540 210 1540 210 1540 280C1540 350 1540 350 1540 420C1540 490 1575 525 1540 560C1505 595 1470 560 1400 560C1330 560 1330 560 1260 560C1190 560 1190 560 1120 560C1050 560 1050 560 980 560C928.78 560 922.56 573.75 877.56 560C852.56 552.36 860.1 517.22 840 517.22C817.26 517.22 820.72 551.19 791.88 560C750.72 572.58 745.94 560 700 560C644.53 560 639.87 570.96 589.06 560C569.87 555.86 574.98 529.8 560 529.8C544.07 529.8 547.78 555.57 527.23 560C477.78 570.67 473.62 560 420 560C350 560 350 560 280 560C252.78 560 243.82 576.74 225.56 560C173.82 512.57 184.05 494.77 140 431.67C135.18 424.77 135.48 423.41 127.83 420C65.48 392.23 38.75 411.75 0 369.31C-25.17 341.75 0 324.65 0 280C0 210 0 210 0 140C0 70 -35 35 0 0C35 -35 70 0 140 0C210 0 210 0 280 0C350 0 350 0 420 0C490 0 490 0 560 0C630 0 630 0 700 0C770 0 770 0 840 0C910 0 910 0 980 0C1050 0 1050 0 1120 0C1190 0 1190 0 1260 0C1330 0 1330 0 1400 0C1433.48 0 1435.39 -8.15 1466.96 0" stroke="rgba(237, 175, 184, 1)" stroke-width="2"></path><path d="M280 270.67C273.86 270.67 270.67 273.65 270.67 280C270.67 328.32 265.18 380 280 380C296.77 380 333.85 316.91 333.85 280C333.85 262.24 305.45 270.67 280 270.67" stroke="rgba(242, 237, 235, 1)" stroke-width="2"></path><path d="M560 275.69C546.35 275.69 532 277.28 532 280C532 282.77 546.73 286.67 560 286.67C564.97 286.67 568.48 282.92 568.48 280C568.48 277.43 564.59 275.69 560 275.69" stroke="rgba(51, 121, 194, 0.58)" stroke-width="2"></path><path d="M1120 273.33C1116.91 273.33 1114.62 276.79 1114.62 280C1114.62 282.87 1116.99 285.49 1120 285.49C1124.05 285.49 1128.75 282.94 1128.75 280C1128.75 276.86 1123.97 273.33 1120 273.33" stroke="rgba(237, 175, 184, 1)" stroke-width="2"></path><path d="M1400 271.52C1392.23 271.52 1383.53 273.91 1383.53 280C1383.53 288.92 1392.91 301.54 1400 301.54C1406.23 301.54 1410.18 289.65 1410.18 280C1410.18 274.64 1405.56 271.52 1400 271.52" stroke="rgba(242, 237, 235, 1)" stroke-width="2"></path><path d="M1260 369.36C1238.67 369.36 1223.94 395.28 1223.94 420C1223.94 442.64 1239.09 464.07 1260 464.07C1287.64 464.07 1321.03 443.06 1321.03 420C1321.03 395.71 1287.21 369.36 1260 369.36" stroke="rgba(51, 121, 194, 0.58)" stroke-width="2"></path><path d="M0 483.91C21.72 483.91 74.47 537.61 74.47 560C74.47 575.66 18.42 578.82 0 560C-18.82 540.77 -15.52 483.91 0 483.91" stroke="rgba(51, 121, 194, 0.58)" stroke-width="2"></path><path d="M205.33 0C245.73 14.05 240.59 28.14 280 48.7C347.92 84.14 349.62 110.97 420 112C489.62 113.02 494.5 89.54 560 52.79C594.32 33.54 584.79 13.14 619.63 0C654.79 -13.26 659.82 0 700 0C746.17 0 751.21 -12.9 792.34 0C821.21 9.06 810.57 33.49 840 43.92C904.4 66.74 912.3 75 980 66.5C1052.3 57.42 1072.35 -10.49 1120 8.75C1163.35 26.26 1162 78.51 1162 140C1162 169.14 1140.69 164.74 1120 190C1083.34 234.74 1047.31 236.75 1047.31 280C1047.31 318.81 1085.7 315.27 1120 354.12C1147.5 385.27 1144.89 387.51 1170.91 420C1214.89 474.9 1208.32 526.52 1260 528.89C1322.86 531.77 1323.01 458.61 1400 430.5C1463.01 407.5 1504.14 393.5 1540 426.67C1574.14 458.25 1574.15 527.48 1540 560C1504.15 594.15 1470 560 1400 560C1330 560 1330 560 1260 560C1190 560 1190 560 1120 560C1050 560 1050 560 980 560C950.12 560 943.3 575.06 920.24 560C873.3 529.36 882.95 468.61 840 468.61C791.42 468.61 792.29 524.03 737.19 560C722.29 569.72 718.6 560 700 560C677.55 560 672.36 572.19 655.09 560C602.36 522.78 613.54 502.23 560 461.18C522.25 432.23 472.5 442.32 472.5 420C472.5 396.73 518.69 398.62 560 370C619.71 328.62 617.28 325 674.55 280C687.28 270 690.91 273.19 700 260C739.13 203.19 770.99 196.04 770.99 140C770.99 98.43 735.11 64.78 700 64.78C665.56 64.78 665.65 102.13 631.89 140C595.65 180.66 604.49 216.25 560 221.85C498.54 229.59 489.81 166.13 420 166.67C349.81 167.21 344.33 186.81 280 224C246.33 243.47 251.14 251.18 224 280C181.14 325.51 190.23 366.15 140 372.65C78.23 380.64 58.9 347.95 0 308.97C-11.1 301.63 0 294.49 0 280C0 210 0 210 0 140C0 70 -35 35 0 0C35 -35 70 0 140 0C172.67 0 175.73 -10.3 205.33 0" stroke="rgba(51, 121, 194, 0.58)" stroke-width="2"></path><path d="M1328.06 140C1328.06 79.49 1347.98 26.76 1400 10.5C1453.95 -6.36 1491.09 28.52 1540 73.76C1561.09 93.27 1540 106.88 1540 140C1540 210 1540 210 1540 280C1540 347.4 1555.65 414.81 1540 414.81C1522.56 414.81 1516.51 339.86 1473.82 280C1446.51 241.7 1434.57 251.69 1400 218.48C1361.69 181.69 1328.06 183.48 1328.06 140" stroke="rgba(242, 237, 235, 1)" stroke-width="2"></path><path d="M1238.13 280C1238.13 271.67 1249.19 262.5 1260 262.5C1270.42 262.5 1280.59 271.65 1280.59 280C1280.59 287.85 1270.4 294.89 1260 294.89C1249.17 294.89 1238.13 287.87 1238.13 280" stroke="rgba(242, 237, 235, 1)" stroke-width="2"></path><path d="M350 560C350 536.98 391.52 483 420 483C442.9 483 452.77 532.33 452.77 560C452.77 570.83 436.38 560 420 560C385 560 350 575.48 350 560" stroke="rgba(237, 175, 184, 1)" stroke-width="2"></path><path d="M0 107.33C33.14 107.33 45.07 122.39 89.09 140C115.07 150.39 126.16 141.37 140 163.33C170.28 211.37 177.33 225.71 177.33 280C177.33 304.63 162.65 321.18 140 321.18C101.56 321.18 88.04 311.05 55.15 280C18.04 244.96 18.88 236.93 0 189C-8.69 166.93 0 164.5 0 140C0 123.66 -11.41 107.33 0 107.33" stroke="rgba(237, 175, 184, 1)" stroke-width="2"></path><path d="M163.33 140C163.33 120.44 223.72 99.42 280 99.42C316.2 99.42 348.29 120.32 348.29 140C348.29 159.28 315.93 177.33 280 177.33C223.45 177.33 163.33 159.4 163.33 140" stroke="rgba(242, 237, 235, 1)" stroke-width="2"></path><path d="M506.47 140C506.47 125.44 536.05 110.16 560 110.16C575.11 110.16 584.59 125.27 584.59 140C584.59 154.19 574.9 168 560 168C535.84 168 506.47 154.36 506.47 140" stroke="rgba(237, 175, 184, 1)" stroke-width="2"></path><path d="M700 12.54C692.01 12.54 684.44 3.53 684.44 0C684.44 -2.74 692.22 0 700 0C708.93 0 717.87 -2.82 717.87 0C717.87 3.45 708.73 12.54 700 12.54" stroke="rgba(237, 175, 184, 1)" stroke-width="2"></path><path d="M820.28 140C827.29 124.7 825.29 112.55 840 112.55C885.15 112.55 910.88 105.17 940 140C980.88 188.9 1001.19 220.67 980 280C951.19 360.67 899.98 420 840 420C791.64 420 768.39 351.91 763.33 280C758.53 211.91 788.95 208.42 820.28 140" stroke="rgba(51, 121, 194, 0.58)" stroke-width="2"></path><path d="M1376.67 140C1376.67 120.38 1379.21 101.64 1400 98C1460.87 87.34 1481.83 93.95 1540 111.4C1551.83 114.95 1540 125.7 1540 140C1540 210 1540 210 1540 280C1540 282.6 1540.6 285.19 1540 285.19C1539.33 285.19 1539.64 281.87 1537.45 280C1469.64 222 1467.39 224.13 1400 165.45C1387 154.13 1376.67 154.1 1376.67 140" stroke="rgba(242, 237, 235, 1)" stroke-width="2"></path><path d="M962.93 560C962.93 540.25 959.81 524.15 980 508.15C1038.34 461.93 1067.99 421.61 1120 435.56C1164.65 447.54 1173.33 515.36 1173.33 560C1173.33 577.58 1146.66 560 1120 560C1050 560 1050 560 980 560C971.46 560 962.93 566.18 962.93 560" stroke="rgba(242, 237, 235, 1)" stroke-width="2"></path><path d="M1332.8 560C1332.8 548.64 1364.75 518 1400 518C1447.76 518 1498.82 549.06 1498.82 560C1498.82 570.06 1449.41 560 1400 560C1366.4 560 1332.8 569.64 1332.8 560" stroke="rgba(237, 175, 184, 1)" stroke-width="2"></path></g><defs><mask id="SvgjsMask1012"><rect width="1440" height="560" fill="#ffffff"></rect></mask></defs></svg>